<svg xmlns="http://www.w3.org/2000/svg" viewBox="0 0 737.82 502.26"><defs><style>.cls-1,.cls-20{fill:#2d374b;}.cls-19,.cls-2{fill:#575756;}.cls-18,.cls-3{fill:#96bedc;}.cls-16,.cls-4{fill:#1472b9;}.cls-17,.cls-5{fill:#3c99d5;}.cls-15,.cls-6{fill:#5b81a3;}.cls-21,.cls-7{fill:#3751d1;}.cls-10,.cls-11,.cls-12,.cls-13,.cls-14,.cls-8,.cls-9{fill:#51728b;}.cls-10,.cls-11,.cls-12,.cls-13,.cls-14,.cls-15,.cls-16,.cls-17,.cls-18,.cls-19,.cls-20,.cls-21,.cls-22,.cls-8,.cls-9{stroke:#d4d4db;stroke-miterlimit:10;}.cls-8{stroke-width:1px;}.cls-9{stroke-width:1.08px;}.cls-10{stroke-width:1.25px;}.cls-11{stroke-width:1.15px;}.cls-12{stroke-width:1.07px;}.cls-13{stroke-width:1.1px;}.cls-14{stroke-width:1.09px;}.cls-15,.cls-16,.cls-17,.cls-18,.cls-19,.cls-20,.cls-21{stroke-width:0.25px;}.cls-22{fill:none;stroke-linecap:round;}.cls-23{font-size:12px;fill:#fff;font-family:MyriadPro-Regular, Myriad Pro;}.cls-24{letter-spacing:-0.01em;}.cls-25{letter-spacing:0.01em;}.cls-26{letter-spacing:0.01em;}.cls-27{letter-spacing:0.02em;}.cls-28{letter-spacing:0em;}.cls-29{letter-spacing:-0.01em;}.cls-30{letter-spacing:0em;}.cls-31{letter-spacing:-0.02em;}.cls-32{letter-spacing:-0.01em;}.cls-33{letter-spacing:-0.01em;}.cls-34{letter-spacing:-0.01em;}.cls-35{letter-spacing:0em;}.cls-36{letter-spacing:0em;}.cls-37{letter-spacing:0em;}</style></defs><g id="Capa_2" data-name="Capa 2"><g id="Capa_1-2" data-name="Capa 1"><path class="cls-1" d="M499.52,401.39A9.08,9.08,0,0,0,487.34,399a149.85,149.85,0,0,1-187.22-24.16,9.83,9.83,0,0,0-13.38-.86l-47.41,39.12a9.8,9.8,0,0,0-1,14.18A230.84,230.84,0,0,0,533,465.91,9.79,9.79,0,0,0,535.64,452Z"/><path class="cls-2" d="M179.26,297.46A229.55,229.55,0,0,0,223.78,409.7a9.08,9.08,0,0,0,13,1.55l48.53-40a9.08,9.08,0,0,0,1.56-12.32A149,149,0,0,1,260,290.84a9.07,9.07,0,0,0-9.63-7.89l-62.74,4.42A9.08,9.08,0,0,0,179.26,297.46Z"/><path class="cls-3" d="M260.94,214.24,202.35,191a9.07,9.07,0,0,0-11.84,5.27c-8.5,22.79-11.47,32.62-12,60-.08,3.62-.1,8.08,0,18.79a9.09,9.09,0,0,0,9.71,9l62.62-4.42a9.06,9.06,0,0,0,8.43-8.91l.09-5.57c.93-13.88,2.63-26.34,6.94-39.84A9,9,0,0,0,260.94,214.24Z"/><path class="cls-4" d="M300.13,168.13a150,150,0,0,1,52.71-35.76,9.09,9.09,0,0,0,5.31-11.27l-19.6-59.82a9.09,9.09,0,0,0-11.87-5.65,231.11,231.11,0,0,0-88.4,60.11,9.09,9.09,0,0,0,.92,13.14l48.6,40A9.06,9.06,0,0,0,300.13,168.13Z"/><path class="cls-5" d="M224.2,132.68a231.32,231.32,0,0,0-25.92,43.63,9.09,9.09,0,0,0,4.93,12.19l58.51,23.17a9.07,9.07,0,0,0,11.54-4.56,149.83,149.83,0,0,1,14.07-23.64,9.08,9.08,0,0,0-1.54-12.36l-48.57-40A9.08,9.08,0,0,0,224.2,132.68Z"/><path class="cls-3" d="M382,51l8.12,63.6a8.47,8.47,0,0,0,8.92,7.38h.16a8.46,8.46,0,0,0,8-8.45V49.36a8.47,8.47,0,0,0-8.86-8.46q-4.31.18-8.56.53A8.49,8.49,0,0,0,382,51Z"/><path class="cls-6" d="M368.46,44.15Q357.89,46,347.66,48.8a9.08,9.08,0,0,0-6.25,11.59L361,120.21a9.08,9.08,0,0,0,10.86,6q3.89-1,7.83-1.74a9.07,9.07,0,0,0,7.31-10l-8-62.43A9.08,9.08,0,0,0,368.46,44.15Z"/><path class="cls-7" d="M410.1,49.67v63.54a8.76,8.76,0,0,0,8.24,8.73,149.83,149.83,0,0,1,85.07,265.55,8.78,8.78,0,0,0-1.63,11.9L538.7,451.1a8.77,8.77,0,0,0,12.56,1.79,230.38,230.38,0,0,0,88.15-181.43c0-123.88-97.62-225-220.12-230.54A8.77,8.77,0,0,0,410.1,49.67Z"/><g id="Capa_3" data-name="Capa 3"><rect class="cls-8" x="436.48" y="0.5" width="101.33" height="22.17"/><rect class="cls-9" x="171.89" y="6.16" width="119.95" height="22.17"/><rect class="cls-10" x="29.3" y="74.97" width="160.43" height="22.17"/><rect class="cls-11" x="16.2" y="143.94" width="135.8" height="22.17"/><rect class="cls-12" x="0.53" y="257.15" width="116.54" height="22.17"/><rect class="cls-13" x="61.62" y="428.43" width="123.6" height="22.17"/><rect class="cls-11" x="599.06" y="468.15" width="135.8" height="22.17"/><rect class="cls-14" x="614.04" y="66.37" width="122.37" height="22.17"/></g><g id="Capa_4" data-name="Capa 4"><circle class="cls-15" cx="453.74" cy="11.72" r="4.17"/><circle class="cls-15" cx="189.15" cy="17.38" r="4.17"/><circle class="cls-16" cx="44.06" cy="86.22" r="4.17"/><circle class="cls-17" cx="33.46" cy="155.16" r="4.17"/><circle class="cls-18" cx="17.79" cy="268.37" r="4.17"/><circle class="cls-19" cx="78.88" cy="439.65" r="4.17"/><circle class="cls-20" cx="616.32" cy="479.37" r="4.17"/><circle class="cls-21" cx="631.3" cy="77.59" r="4.17"/></g><g id="Capa_5" data-name="Capa 5"><line class="cls-22" x1="391.45" y1="46.42" x2="436.48" y2="11.58"/><line class="cls-22" x1="291.85" y1="16.9" x2="361.82" y2="52.6"/><line class="cls-22" x1="189.69" y1="85.71" x2="276.85" y2="95.12"/><line class="cls-22" x1="151.97" y1="154.68" x2="221.52" y2="164.23"/><line class="cls-22" x1="117.19" y1="268.42" x2="190.56" y2="249.64"/><line class="cls-22" x1="160.93" y1="428.43" x2="230.17" y2="382.6"/><line class="cls-22" x1="503.74" y1="469.79" x2="599.06" y2="479.79"/><line class="cls-22" x1="557.97" y1="126.44" x2="614.04" y2="78.01"/></g><text class="cls-23" transform="translate(641.32 81.63)"><tspan class="cls-24">P</tspan><tspan x="6.2" y="0" xml:space="preserve">ublic sale:  40%</tspan></text><text class="cls-23" transform="translate(626.34 483.4)"><tspan class="cls-25">S</tspan><tspan x="5.99" y="0">eed liquidi</tspan><tspan class="cls-26" x="58.71" y="0">t</tspan><tspan class="cls-27" x="62.79" y="0">y</tspan><tspan x="68.73" y="0" xml:space="preserve">:  24%</tspan></text><text class="cls-23" transform="translate(88.9 443.69)"><tspan xml:space="preserve">CEX Listing:  10%</tspan></text><text class="cls-23" transform="translate(27.82 272.41)"><tspan class="cls-25">M</tspan><tspan x="9.72" y="0">a</tspan><tspan class="cls-28" x="15.5" y="0">r</tspan><tspan x="19.48" y="0" xml:space="preserve">keting:  7%</tspan></text><text class="cls-23" transform="translate(43.48 159.2)"><tspan class="cls-28">D</tspan><tspan x="8.04" y="0">e</tspan><tspan class="cls-29" x="14.05" y="0">v</tspan><tspan x="19.7" y="0">elopeme</tspan><tspan class="cls-30" x="63.99" y="0">n</tspan><tspan x="70.61" y="0" xml:space="preserve">t:  5%</tspan></text><text class="cls-23" transform="translate(60.59 89.58)"><tspan class="cls-31">P</tspan><tspan class="cls-32" x="6.19" y="0">r</tspan><tspan x="10" y="0">o</tspan><tspan class="cls-33" x="16.58" y="0">t</tspan><tspan x="20.48" y="0">o</tspan><tspan class="cls-33" x="27.07" y="0">c</tspan><tspan x="32.38" y="0">ol in</tspan><tspan class="cls-34" x="53.81" y="0">c</tspan><tspan x="59.11" y="0">e</tspan><tspan class="cls-35" x="65.12" y="0">n</tspan><tspan class="cls-36" x="71.73" y="0">ti</tspan><tspan class="cls-32" x="78.51" y="0">v</tspan><tspan x="84.17" y="0" xml:space="preserve">es:  9%</tspan></text><text class="cls-23" transform="translate(203.17 21.42)"><tspan class="cls-30">E</tspan><tspan class="cls-33" x="5.86" y="0">c</tspan><tspan x="11.16" y="0">os</tspan><tspan class="cls-34" x="22.5" y="0">y</tspan><tspan x="28.08" y="0">s</tspan><tspan class="cls-33" x="32.83" y="0">t</tspan><tspan x="36.73" y="0" xml:space="preserve">em:  3%</tspan></text><text class="cls-23" transform="translate(467.77 15.75)"><tspan class="cls-37">A</tspan><tspan x="7.31" y="0">i</tspan><tspan class="cls-29" x="10.12" y="0">r</tspan><tspan x="13.92" y="0">d</tspan><tspan class="cls-32" x="20.69" y="0">r</tspan><tspan x="24.49" y="0" xml:space="preserve">op:  2%</tspan></text></g></g></svg>