<svg xmlns="http://www.w3.org/2000/svg" xmlns:xlink="http://www.w3.org/1999/xlink" viewBox="0 0 2121.16 715.92"><defs><style>.cls-1,.cls-10{fill:#292647;}.cls-11,.cls-2{fill:#fff;}.cls-3{fill:url(#Degradado_sin_nombre_213);}.cls-4{fill:url(#Degradado_sin_nombre_222);}.cls-5{fill:url(#Degradado_sin_nombre_225);}.cls-6{fill:url(#Degradado_sin_nombre_222-2);}.cls-7{fill:url(#Degradado_sin_nombre_254);}.cls-8{fill:url(#Degradado_sin_nombre_225-2);}.cls-9{fill:url(#Degradado_sin_nombre_222-3);}.cls-10,.cls-11{font-size:105px;font-family:Poppins-Bold, Poppins;font-weight:700;}.cls-12{fill:url(#Degradado_sin_nombre_222-4);}.cls-13{fill:url(#Degradado_sin_nombre_225-3);}.cls-14{fill:url(#Degradado_sin_nombre_254-2);}.cls-15{fill:url(#Degradado_sin_nombre_213-2);}.cls-16{fill:url(#Degradado_sin_nombre_222-5);}.cls-17{fill:url(#Degradado_sin_nombre_225-4);}.cls-18{fill:url(#Degradado_sin_nombre_222-6);}</style><linearGradient id="Degradado_sin_nombre_213" x1="807.72" y1="264.95" x2="807.72" y2="411.03" gradientUnits="userSpaceOnUse"><stop offset="0" stop-color="#2c87a7"/><stop offset="0.26" stop-color="#3092b5"/><stop offset="0.75" stop-color="#3aafda"/><stop offset="1" stop-color="#40c0f0"/></linearGradient><linearGradient id="Degradado_sin_nombre_222" x1="769.92" y1="256.46" x2="851.93" y2="256.46" gradientUnits="userSpaceOnUse"><stop offset="0" stop-color="#38abd5"/><stop offset="0.59" stop-color="#3cb6e3"/><stop offset="1" stop-color="#40c0f0"/></linearGradient><linearGradient id="Degradado_sin_nombre_225" x1="803.38" y1="335.78" x2="864.77" y2="335.78" gradientUnits="userSpaceOnUse"><stop offset="0" stop-color="#2c87a7"/><stop offset="0.18" stop-color="#3093b7"/><stop offset="0.72" stop-color="#3cb4e0"/><stop offset="1" stop-color="#40c0f0"/></linearGradient><linearGradient id="Degradado_sin_nombre_222-2" x1="803.38" y1="265.87" x2="877.58" y2="265.87" xlink:href="#Degradado_sin_nombre_222"/><linearGradient id="Degradado_sin_nombre_254" x1="885.77" y1="371.07" x2="885.77" y2="265.35" gradientUnits="userSpaceOnUse"><stop offset="0" stop-color="#2c87a7"/><stop offset="0.09" stop-color="#3093b7"/><stop offset="0.37" stop-color="#3cb4e0"/><stop offset="0.51" stop-color="#40c0f0"/><stop offset="1" stop-color="#369dc3"/></linearGradient><linearGradient id="Degradado_sin_nombre_225-2" x1="838.45" y1="332.66" x2="880.45" y2="332.66" xlink:href="#Degradado_sin_nombre_225"/><linearGradient id="Degradado_sin_nombre_222-3" x1="838.45" y1="275.74" x2="902.4" y2="275.74" xlink:href="#Degradado_sin_nombre_222"/><linearGradient id="Degradado_sin_nombre_222-4" x1="151.38" y1="263.53" x2="215.33" y2="263.53" xlink:href="#Degradado_sin_nombre_222"/><linearGradient id="Degradado_sin_nombre_225-3" x1="151.38" y1="320.45" x2="193.39" y2="320.45" xlink:href="#Degradado_sin_nombre_225"/><linearGradient id="Degradado_sin_nombre_254-2" x1="198.7" y1="358.86" x2="198.7" y2="253.14" xlink:href="#Degradado_sin_nombre_254"/><linearGradient id="Degradado_sin_nombre_213-2" x1="120.65" y1="252.73" x2="120.65" y2="398.82" xlink:href="#Degradado_sin_nombre_213"/><linearGradient id="Degradado_sin_nombre_222-5" x1="82.85" y1="244.24" x2="164.87" y2="244.24" xlink:href="#Degradado_sin_nombre_222"/><linearGradient id="Degradado_sin_nombre_225-4" x1="116.32" y1="323.57" x2="177.7" y2="323.57" xlink:href="#Degradado_sin_nombre_225"/><linearGradient id="Degradado_sin_nombre_222-6" x1="116.32" y1="253.66" x2="190.52" y2="253.66" xlink:href="#Degradado_sin_nombre_222"/></defs><g id="Capa_2" data-name="Capa 2"><g id="Capa_7" data-name="Capa 7"><rect class="cls-1" y="443.21" width="2121.16" height="272.7"/><path class="cls-2" d="M290.51,596H263.35L259,608.81H240.45l26.32-72.75H287.3l26.32,72.75H294.86ZM286,582.28l-9-26.63L268,582.28Z"/><path class="cls-2" d="M347.1,536.06v72.75H329.37V536.06Z"/><path class="cls-2" d="M467.84,536.06l-19,72.75H427.42l-11.61-47.88-12,47.88H382.33l-18.44-72.75h19l10.47,53,12.95-53h19.49l12.44,53,10.57-53Z"/><path class="cls-2" d="M531.89,540.62c5.73,3,10.07,9,13.21,14.46a40.56,40.56,0,0,1,0,38c-3.14,5.53-7.5,8.15-13.27,11.19a42.38,42.38,0,0,1-20.05,4.56H484.52V536.06h27.26A42.35,42.35,0,0,1,531.89,540.62ZM526.29,588q5.6-5.49,5.6-15.54t-5.6-15.65q-5.6-5.6-15.65-5.6h-8.4v42.29h8.4Q520.69,593.48,526.29,588Z"/><path class="cls-2" d="M252.4,642.13h-9.05l-1.56,4.41h-3.7l7.75-21.64h4.1l7.74,21.64H254Zm-1-2.89-3.51-10-3.55,10Z"/><path class="cls-2" d="M264.58,624.94v21.6H261v-21.6Z"/><path class="cls-2" d="M305.47,624.94l-6.41,21.6h-4l-4.54-16.35-4.82,16.35-4,0-6.12-21.64h3.76l4.48,17.59,4.85-17.59h4l4.51,17.5,4.51-17.5Z"/><path class="cls-2" d="M321.42,642.13h-9.05l-1.55,4.41h-3.7l7.74-21.64H319l7.75,21.64H323Zm-1-2.89-3.51-10-3.54,10Z"/><path class="cls-2" d="M333.61,643.68h7.3v2.86H330.06v-21.6h3.55Z"/><path class="cls-2" d="M347.41,643.68h7.31v2.86H343.87v-21.6h3.54Z"/><path class="cls-2" d="M361.22,627.8v6.34h7.46V637h-7.46v6.62h8.39v2.89H357.67V624.9h11.94v2.9Z"/><path class="cls-2" d="M387.92,624.94v2.89h-5.75v18.71h-3.54V627.83h-5.79v-2.89Z"/><path class="cls-2" d="M412.69,626.26a9.47,9.47,0,0,1,4,3.79,11.45,11.45,0,0,1,1.41,5.77,11.18,11.18,0,0,1-1.41,5.72,9.35,9.35,0,0,1-4,3.71,13.44,13.44,0,0,1-6.05,1.29h-7.06v-21.6h7.06A13.18,13.18,0,0,1,412.69,626.26Zm-.24,15.34a7.87,7.87,0,0,0,2-5.78,8.16,8.16,0,0,0-2-5.88,7.64,7.64,0,0,0-5.81-2.11h-3.51v15.82h3.51A7.77,7.77,0,0,0,412.45,641.6Z"/><path class="cls-2" d="M425.17,627.8v6.34h7.46V637h-7.46v6.62h8.4v2.89H421.63V624.9h11.94v2.9Z"/><path class="cls-2" d="M450.64,624.94v2.89h-9.18v6.37h7.15v2.89h-7.15v9.45h-3.54v-21.6Z"/><path class="cls-2" d="M457.48,627.8v6.34h7.46V637h-7.46v6.62h8.39v2.89H453.93V624.9h11.94v2.9Z"/><path class="cls-2" d="M488,646.54h-3.55l-10.66-16.13v16.13h-3.55V624.9h3.55L484.43,641V624.9H488Z"/><path class="cls-2" d="M505.75,626.26a9.47,9.47,0,0,1,4,3.79,11.45,11.45,0,0,1,1.41,5.77,11.18,11.18,0,0,1-1.41,5.72,9.35,9.35,0,0,1-4,3.71,13.44,13.44,0,0,1-6.05,1.29h-7.06v-21.6h7.06A13.18,13.18,0,0,1,505.75,626.26Zm-.24,15.34a7.87,7.87,0,0,0,2-5.78,8.15,8.15,0,0,0-2-5.88,7.65,7.65,0,0,0-5.81-2.11h-3.51v15.82h3.51A7.78,7.78,0,0,0,505.51,641.6Z"/><path class="cls-2" d="M518.23,627.8v6.34h7.46V637h-7.46v6.62h8.39v2.89H514.68V624.9h11.94v2.9Z"/><path class="cls-2" d="M542.2,646.54l-5-8.64h-2.71v8.64H531v-21.6h7.46a9.26,9.26,0,0,1,4.21.87c1.15.58,1.91,3,2.48,4a6.32,6.32,0,0,1,.85,3.26,6.52,6.52,0,0,1-1.22,3.84c-.82,1.15-2,.28-3.68.69l5.25,10.61Zm-7.68-11.47h3.92a4.11,4.11,0,0,0,3-1,3.62,3.62,0,0,0,1-2.68,3.44,3.44,0,0,0-1-2.62,4.21,4.21,0,0,0-3-.95h-3.92Z"/><path class="cls-2" d="M95.49,587c-.66-21.69-.4-56.06-.39-56.32l-19-8.76h0s-.59,62.3,0,67.86c1.53,14.49,8.11,41.34,44.89,66.67,14.47,10,18.44,11.55,18.44,11.55l12.53-8.16a108.42,108.42,0,0,1-20.53-13C115.38,634.14,96.16,608.79,95.49,587Z"/><path class="cls-2" d="M95.1,530.69s19.63-9,28.33-12.9c9.11-4.11,34.64-15.16,34.64-15.16l-17.7-6.45s-14.05,5.61-30.27,12.28c-15.08,6.19-31.92,12.66-34,13.47l19,8.76Z"/><path class="cls-2" d="M129.42,539.93s.52,25.27.52,45.11c0,14.37,10.15,37.85,27.41,49.93,9.36,6.55,13.55,9.07,13.55,9.07l-11,9.31s-.27.31-12.31-8.25c-30.3-21.54-35-44.55-36.3-56.72-.49-4.68-1.76-56.21-1.76-56.21Z"/><path class="cls-2" d="M129.27,540h0s14-7.22,21.33-10.52c7.66-3.45,33.11-17.18,33.11-17.18L166,505.7s-14.89,7.41-28,13.49-28.31,12.9-28.5,13Z"/><path class="cls-2" d="M192.74,531.61l15.79-9.28s-.08,43.74,0,49.74-1.67,26.38-11.93,41.34c-9.33,13.61-10,14.65-10,14.65l-11.31-8,.56-.7s12.35-16.34,15.25-30.48c1.19-5.78,1.15-7.85,1.52-17.26S192.74,531.61,192.74,531.61Z"/><path class="cls-2" d="M170.68,613c-8.56-10.31-8-28.57-8-28.57l.05-35.16-18.17-7.37c0,.08.07,9.28,0,16.73-.28,42.23,5,49.16,8.43,54.63a74.57,74.57,0,0,0,24.54,24.21l9-9.37A94.92,94.92,0,0,1,170.68,613Z"/><polygon class="cls-2" points="162.75 549.22 208.53 522.33 191.97 516.22 144.58 541.85 144.58 541.86 162.75 549.23 162.75 549.22"/></g><g id="Capa_8" data-name="Capa 8"><path class="cls-3" d="M789.36,330c-.67-21.69-.4-56.06-.4-56.32l-19-8.76h0s-.59,62.3,0,67.86c1.53,14.48,8.11,41.33,44.89,66.67,14.47,10,18.45,11.55,18.45,11.55l12.53-8.16a108.42,108.42,0,0,1-20.53-12.95C809.25,377.16,790,351.81,789.36,330Z"/><path class="cls-4" d="M789,273.71s19.64-9,28.34-12.9c9.11-4.11,34.63-15.17,34.63-15.17l-17.69-6.44s-14.06,5.61-30.28,12.28c-15.08,6.19-31.92,12.66-34,13.47l19,8.76Z"/><path class="cls-5" d="M823.29,283s.52,25.26.52,45.11c0,14.37,10.15,37.85,27.41,49.93,9.36,6.55,13.55,9.07,13.55,9.07l-11,9.31s-.28.31-12.31-8.25c-30.3-21.54-35-44.55-36.3-56.73-.49-4.67-1.76-56.2-1.76-56.2Z"/><path class="cls-6" d="M823.14,283h0s14-7.22,21.33-10.52c7.66-3.45,33.11-17.18,33.11-17.18l-17.7-6.6s-14.89,7.41-28,13.48-28.32,12.91-28.5,13Z"/><path class="cls-7" d="M886.61,274.63l15.79-9.28s-.08,43.74,0,49.74-1.67,26.37-11.93,41.34c-9.33,13.6-10,14.64-10,14.64l-11.31-8,.55-.7s12.36-16.34,15.26-30.48c1.19-5.78,1.15-7.85,1.52-17.26S886.61,274.63,886.61,274.63Z"/><path class="cls-8" d="M864.54,356c-8.55-10.31-8-28.57-8-28.57l.06-35.17-18.17-7.36c0,.07.07,9.28,0,16.73-.29,42.22,5,49.16,8.43,54.63a74.46,74.46,0,0,0,24.54,24.21l9-9.38A94.86,94.86,0,0,1,864.54,356Z"/><polygon class="cls-9" points="856.62 292.24 902.4 265.35 885.84 259.24 838.45 284.87 838.45 284.88 856.62 292.24 856.62 292.24"/><text class="cls-10" transform="translate(928.92 352.41)">AI WALLET DEFENDER</text><path class="cls-2" d="M789.36,589.19c-.67-21.69-.4-56.06-.4-56.32l-19-8.76h0s-.59,62.3,0,67.86c1.53,14.49,8.11,41.33,44.89,66.67,14.47,10,18.45,11.55,18.45,11.55L845.78,662a108.42,108.42,0,0,1-20.53-12.95C809.25,636.32,790,611,789.36,589.19Z"/><path class="cls-2" d="M789,532.87s19.64-9,28.34-12.9c9.11-4.11,34.63-15.17,34.63-15.17l-17.69-6.44S820.18,504,804,510.64c-15.08,6.19-31.92,12.66-34,13.47l19,8.76Z"/><path class="cls-2" d="M823.29,542.11s.52,25.27.52,45.11c0,14.37,10.15,37.85,27.41,49.93,9.36,6.55,13.55,9.07,13.55,9.07l-11,9.31s-.28.31-12.31-8.25c-30.3-21.54-35-44.55-36.3-56.72-.49-4.68-1.76-56.21-1.76-56.21Z"/><path class="cls-2" d="M823.14,542.18h0s14-7.22,21.33-10.52c7.66-3.45,33.11-17.18,33.11-17.18l-17.7-6.6s-14.89,7.41-28,13.49-28.32,12.9-28.5,13Z"/><path class="cls-2" d="M886.61,533.79l15.79-9.28s-.08,43.74,0,49.74-1.67,26.38-11.93,41.34c-9.33,13.6-10,14.65-10,14.65l-11.31-8,.55-.7s12.36-16.34,15.26-30.48c1.19-5.78,1.15-7.85,1.52-17.26S886.61,533.79,886.61,533.79Z"/><path class="cls-2" d="M864.54,615.14c-8.55-10.31-8-28.57-8-28.57l.06-35.16L838.45,544c0,.08.07,9.28,0,16.73-.29,42.23,5,49.16,8.43,54.63a74.46,74.46,0,0,0,24.54,24.21l9-9.37A95.19,95.19,0,0,1,864.54,615.14Z"/><polygon class="cls-2" points="856.62 551.4 902.4 524.51 885.84 518.4 838.45 544.03 838.45 544.04 856.62 551.4 856.62 551.4"/><text class="cls-11" transform="translate(928.92 611.57)">AI WALLET DEFENDER</text></g><g id="Capa_14" data-name="Capa 14"><path class="cls-1" d="M789.62,99.66c-.66-21.7-.4-56.07-.39-56.33l-19.05-8.76h0s-.59,62.3,0,67.86c1.53,14.49,8.11,41.34,44.89,66.67,14.47,10,18.44,11.56,18.44,11.56L846,172.49a107.8,107.8,0,0,1-20.53-13C809.51,146.78,790.29,121.43,789.62,99.66Z"/><path class="cls-1" d="M789.23,43.33s19.63-9,28.33-12.9c9.11-4.11,34.64-15.16,34.64-15.16L834.5,8.82s-14,5.61-30.27,12.28c-15.08,6.2-31.92,12.66-34.05,13.47l19.05,8.76Z"/><path class="cls-1" d="M823.55,52.57s.52,25.27.52,45.11c0,14.37,10.15,37.86,27.41,49.93,9.37,6.55,13.55,9.07,13.55,9.07L854,166s-.28.31-12.32-8.25c-30.29-21.54-35-44.55-36.29-56.72-.5-4.68-1.77-56.21-1.77-56.21Z"/><path class="cls-1" d="M823.4,52.64h0s14-7.22,21.33-10.52c7.66-3.45,33.12-17.18,33.12-17.18l-17.71-6.59s-14.89,7.4-28,13.48-28.31,12.9-28.5,13Z"/><path class="cls-1" d="M886.87,44.25,902.66,35s-.07,43.74,0,49.74-1.67,26.37-11.93,41.33c-9.33,13.61-10,14.65-10,14.65l-11.32-8L870,132s12.36-16.34,15.26-30.48c1.18-5.78,1.14-7.85,1.51-17.26S886.87,44.25,886.87,44.25Z"/><path class="cls-1" d="M864.81,125.61c-8.56-10.32-8-28.58-8-28.58l0-35.16L838.71,54.5c0,.08.07,9.28,0,16.73-.28,42.23,5,49.17,8.43,54.63a74.57,74.57,0,0,0,24.54,24.21l9-9.37A94.92,94.92,0,0,1,864.81,125.61Z"/><polygon class="cls-1" points="856.88 61.86 902.66 34.98 886.11 28.86 838.71 54.49 838.71 54.5 856.88 61.87 856.88 61.86"/><text class="cls-10" transform="translate(929.18 122.03)">AI WALLET DEFENDER</text></g><g id="Capa_12" data-name="Capa 12"><path class="cls-1" d="M293.22,327.37H266.54L262.27,340H244.05l25.85-71.46h20.16L315.92,340H297.49Zm-4.48-13.44-8.86-26.16-8.75,26.16Z"/><path class="cls-1" d="M348.8,268.53V340H331.39V268.53Z"/><path class="cls-1" d="M467.4,268.53,448.77,340H427.69l-11.4-47-11.81,47H383.41l-18.12-71.46h18.63l10.28,52,12.73-52h19.14l12.21,52,10.38-52Z"/><path class="cls-1" d="M255.78,372.71h-8.89l-1.53,4.34h-3.63l7.61-21.26h4l7.6,21.26h-3.66Zm-1-2.84L251.35,360l-3.48,9.86Z"/><path class="cls-1" d="M267.75,355.83v21.22h-3.48V355.83Z"/><path class="cls-1" d="M307.91,355.83l-6.29,21.22h-3.94L293.22,361l-4.73,16.06-3.91,0-6-21.25h3.7l4.39,17.28,4.77-17.28h3.91L299.76,373l4.43-17.19Z"/><path class="cls-1" d="M323.58,372.71h-8.89l-1.53,4.34h-3.63l7.6-21.26h4l7.6,21.26H325.1Zm-1-2.84L319.15,360l-3.48,9.86Z"/><path class="cls-1" d="M335.55,374.24h7.18v2.81H332.07V355.83h3.48Z"/><path class="cls-1" d="M349.11,374.24h7.18v2.81H345.63V355.83h3.48Z"/><path class="cls-1" d="M362.67,358.63v6.24H370v2.84h-7.33v6.5h8.24v2.84H359.19V355.79h11.72v2.84Z"/><path class="cls-1" d="M388.9,355.83v2.84h-5.65v18.38h-3.48V358.67h-5.68v-2.84Z"/><path class="cls-1" d="M413.23,357.12a9.34,9.34,0,0,1,3.94,3.73,11.27,11.27,0,0,1,1.38,5.66,11,11,0,0,1-1.38,5.62,9.16,9.16,0,0,1-3.94,3.65,13.12,13.12,0,0,1-5.94,1.27h-6.94V355.83h6.94A13,13,0,0,1,413.23,357.12ZM413,372.19a7.74,7.74,0,0,0,2-5.68,8,8,0,0,0-2-5.77,7.56,7.56,0,0,0-5.71-2.07h-3.46v15.54h3.46A7.65,7.65,0,0,0,413,372.19Z"/><path class="cls-1" d="M425.49,358.63v6.24h7.33v2.84h-7.33v6.5h8.24v2.84H422V355.79h11.72v2.84Z"/><path class="cls-1" d="M450.5,355.83v2.84h-9v6.26h7v2.84h-7v9.28H438V355.83Z"/><path class="cls-1" d="M457.22,358.63v6.24h7.33v2.84h-7.33v6.5h8.24v2.84H453.74V355.79h11.72v2.84Z"/><path class="cls-1" d="M487.18,377.05H483.7L473.22,361.2v15.85h-3.48V355.79h3.48l10.48,15.82V355.79h3.48Z"/><path class="cls-1" d="M504.63,357.12a9.34,9.34,0,0,1,3.94,3.73,11.18,11.18,0,0,1,1.39,5.66,10.9,10.9,0,0,1-1.39,5.62,9.16,9.16,0,0,1-3.94,3.65,13.12,13.12,0,0,1-5.94,1.27h-6.93V355.83h6.93A13,13,0,0,1,504.63,357.12Zm-.23,15.07a7.71,7.71,0,0,0,2-5.68,8,8,0,0,0-2-5.77,7.53,7.53,0,0,0-5.71-2.07h-3.45v15.54h3.45A7.62,7.62,0,0,0,504.4,372.19Z"/><path class="cls-1" d="M516.89,358.63v6.24h7.33v2.84h-7.33v6.5h8.25v2.84H513.41V355.79h11.73v2.84Z"/><path class="cls-1" d="M540.44,377.05l-4.89-8.49H532.9v8.49h-3.48V355.83h7.32a9.12,9.12,0,0,1,4.14.85,5.93,5.93,0,0,1,2.54,2.29,6.25,6.25,0,0,1,.84,3.21,6.39,6.39,0,0,1-1.21,3.77,6.12,6.12,0,0,1-3.71,2.31l5.25,8.79Zm-7.54-11.27h3.84a4,4,0,0,0,3-1,3.51,3.51,0,0,0,1-2.62,3.39,3.39,0,0,0-1-2.58,4.16,4.16,0,0,0-3-.93H532.9Z"/><path class="cls-1" d="M530.47,273c5.63,3,9.89,8.8,13,14.2a39.9,39.9,0,0,1,0,37.31c-3.09,5.43-7.36,8-13,11a41.6,41.6,0,0,1-19.7,4.48H484V268.53h26.77A41.5,41.5,0,0,1,530.47,273ZM525,319.53q5.5-5.4,5.5-15.27T525,288.89q-5.49-5.5-15.37-5.5h-8.24v41.53h8.24Q519.47,324.92,525,319.53Z"/><g id="Capa_11" data-name="Capa 11"><g id="Capa_10" data-name="Capa 10"><polygon class="cls-12" points="169.56 280.03 215.33 253.14 198.78 247.03 151.38 272.66 151.38 272.66 169.56 280.03 169.56 280.03"/><path class="cls-13" d="M177.48,343.77c-8.55-10.32-8-28.58-8-28.58l.06-35.16-18.18-7.37c0,.08.08,9.29,0,16.74-.29,42.22,5,49.16,8.42,54.63a74.67,74.67,0,0,0,24.55,24.21l9-9.38A94.42,94.42,0,0,1,177.48,343.77Z"/><path class="cls-14" d="M199.54,262.41l15.79-9.27s-.07,43.74,0,49.74-1.66,26.37-11.92,41.33c-9.33,13.61-10,14.65-10,14.65l-11.32-8,.56-.7s12.36-16.35,15.26-30.49c1.18-5.77,1.15-7.85,1.52-17.25S199.54,262.41,199.54,262.41Z"/></g><path class="cls-15" d="M102.3,317.82c-.67-21.7-.4-56.06-.4-56.32l-19.05-8.77h0s-.59,62.31,0,67.87c1.53,14.48,8.11,41.33,44.89,66.66,14.47,10,18.44,11.56,18.44,11.56l12.54-8.17a107.91,107.91,0,0,1-20.54-12.94C122.19,364.94,103,339.6,102.3,317.82Z"/><path class="cls-16" d="M101.9,261.5s19.64-9,28.33-12.9c9.11-4.11,34.64-15.17,34.64-15.17L147.18,227s-14.06,5.61-30.28,12.27c-15.08,6.2-31.92,12.66-34.05,13.47l19.05,8.77Z"/><g id="Capa_3" data-name="Capa 3"><path class="cls-17" d="M136.23,270.74s.52,25.26.52,45.11c0,14.37,10.14,37.85,27.4,49.92,9.37,6.56,13.55,9.07,13.55,9.07l-11,9.31s-.28.32-12.32-8.24c-30.29-21.54-35-44.56-36.29-56.73-.49-4.67-1.76-56.2-1.76-56.2Z"/><path class="cls-18" d="M136.07,270.81h0s14-7.22,21.34-10.52c7.65-3.46,33.11-17.19,33.11-17.19l-17.71-6.59s-14.88,7.41-28,13.48-28.31,12.9-28.49,13Z"/></g></g></g><g id="Capa_9" data-name="Capa 9"><g id="Capa_4" data-name="Capa 4"><path class="cls-1" d="M295.36,99.78H268.21l-4.36,12.85H245.3l26.33-72.75h20.52l26.32,72.75H299.71ZM290.8,86.1l-9-26.63L272.87,86.1Z"/><path class="cls-1" d="M352,39.88v72.75H334.22V39.88Z"/><path class="cls-1" d="M472.69,39.88l-19,72.75H432.27L420.66,64.75l-12,47.88H387.18L368.74,39.88h19l10.47,53,13-53h19.48l12.44,53,10.57-53Z"/><path class="cls-1" d="M536.74,44.44c5.73,3,10.07,9,13.21,14.46a37.62,37.62,0,0,1,4.72,19,37.74,37.74,0,0,1-4.72,19c-3.14,5.53-7.5,8.15-13.27,11.19a42.38,42.38,0,0,1-20,4.56H489.37V39.88h27.26A42.35,42.35,0,0,1,536.74,44.44Zm-5.6,47.36q5.6-5.49,5.6-15.54t-5.6-15.65Q525.54,55,515.49,55h-8.4V97.29h8.4Q525.54,97.29,531.14,91.8Z"/><path class="cls-1" d="M257.25,146H248.2l-1.56,4.41h-3.7l7.75-21.64h4.1l7.74,21.64H258.8Zm-1-2.89L252.74,133l-3.55,10.05Z"/><path class="cls-1" d="M269.43,128.76v21.6h-3.54v-21.6Z"/><path class="cls-1" d="M310.32,128.76l-6.4,21.6h-4L295.36,134l-4.81,16.35-4,0-6.13-21.64h3.76l4.48,17.59,4.85-17.59h4l4.51,17.5,4.51-17.5Z"/><path class="cls-1" d="M326.27,146h-9l-1.55,4.41H312l7.74-21.64h4.1l7.75,21.64h-3.74Zm-1-2.89L321.76,133l-3.54,10.05Z"/><path class="cls-1" d="M338.46,147.5h7.3v2.86H334.91v-21.6h3.55Z"/><path class="cls-1" d="M352.26,147.5h7.31v2.86H348.72v-21.6h3.54Z"/><path class="cls-1" d="M366.07,131.62V138h7.46v2.89h-7.46v6.62h8.39v2.89H362.52V128.72h11.94v2.9Z"/><path class="cls-1" d="M392.77,128.76v2.89H387v18.71h-3.54V131.65h-5.79v-2.89Z"/><path class="cls-1" d="M417.54,130.08a9.41,9.41,0,0,1,4,3.79,11.45,11.45,0,0,1,1.41,5.77,11.18,11.18,0,0,1-1.41,5.72,9.29,9.29,0,0,1-4,3.71,13.44,13.44,0,0,1-6.05,1.29h-7.06v-21.6h7.06A13.18,13.18,0,0,1,417.54,130.08Zm-.23,15.34a7.93,7.93,0,0,0,2-5.78,8.2,8.2,0,0,0-2-5.88,7.68,7.68,0,0,0-5.82-2.11H408v15.82h3.51A7.81,7.81,0,0,0,417.31,145.42Z"/><path class="cls-1" d="M430,131.62V138h7.46v2.89H430v6.62h8.4v2.89H426.48V128.72h11.94v2.9Z"/><path class="cls-1" d="M455.49,128.76v2.89h-9.18V138h7.15v2.89h-7.15v9.45h-3.54v-21.6Z"/><path class="cls-1" d="M462.33,131.62V138h7.46v2.89h-7.46v6.62h8.39v2.89H458.78V128.72h11.94v2.9Z"/><path class="cls-1" d="M492.83,150.36h-3.55l-10.66-16.13v16.13h-3.55V128.72h3.55l10.66,16.11V128.72h3.55Z"/><path class="cls-1" d="M510.6,130.08a9.47,9.47,0,0,1,4,3.79,11.45,11.45,0,0,1,1.41,5.77,11.18,11.18,0,0,1-1.41,5.72,9.35,9.35,0,0,1-4,3.71,13.44,13.44,0,0,1-6.05,1.29h-7.06v-21.6h7.06A13.18,13.18,0,0,1,510.6,130.08Zm-.24,15.34a7.89,7.89,0,0,0,2-5.78,8.16,8.16,0,0,0-2-5.88,7.64,7.64,0,0,0-5.81-2.11H501v15.82h3.51A7.77,7.77,0,0,0,510.36,145.42Z"/><path class="cls-1" d="M523.08,131.62V138h7.46v2.89h-7.46v6.62h8.39v2.89H519.54V128.72h11.93v2.9Z"/><path class="cls-1" d="M547.17,150.36l-5-8.65h-2.71v8.65h-3.56V128.72h7.49a9.18,9.18,0,0,1,4.22.88,6,6,0,0,1,2.59,2.33,6.38,6.38,0,0,1,.85,3.27,6.51,6.51,0,0,1-1.23,3.85,6.27,6.27,0,0,1-3.78,2.35l5.36,9Zm-7.7-11.49h3.93a4.13,4.13,0,0,0,3-1,3.59,3.59,0,0,0,1-2.68,3.47,3.47,0,0,0-1-2.63,4.26,4.26,0,0,0-3-.95h-3.93Z"/></g><g id="Capa_6" data-name="Capa 6"><path class="cls-1" d="M100.34,90.83c-.66-21.69-.4-56.06-.39-56.32l-19-8.76h0s-.59,62.3,0,67.86c1.53,14.49,8.11,41.33,44.89,66.67,14.47,10,18.44,11.55,18.44,11.55l12.53-8.16a108.42,108.42,0,0,1-20.53-12.95C120.23,138,101,112.61,100.34,90.83Z"/><path class="cls-1" d="M100,34.51s19.63-9,28.33-12.9c9.11-4.11,34.64-15.17,34.64-15.17L145.22,0S131.17,5.61,115,12.28C99.87,18.47,83,24.94,80.9,25.75l19,8.76Z"/><path class="cls-1" d="M134.27,43.75s.52,25.26.52,45.11c0,14.37,10.15,37.85,27.41,49.93,9.36,6.55,13.55,9.07,13.55,9.07l-11,9.31s-.27.31-12.31-8.25c-30.29-21.54-35-44.55-36.29-56.72-.5-4.68-1.77-56.21-1.77-56.21Z"/><path class="cls-1" d="M134.12,43.82h0s14-7.22,21.33-10.52c7.66-3.45,33.11-17.18,33.11-17.18l-17.7-6.6S156,16.93,142.86,23s-28.31,12.9-28.5,13Z"/><path class="cls-1" d="M197.59,35.43l15.79-9.28s-.07,43.74,0,49.74-1.67,26.37-11.93,41.34c-9.33,13.6-10,14.65-10,14.65l-11.32-8,.56-.7S193,106.85,195.94,92.71c1.18-5.78,1.14-7.85,1.51-17.26S197.59,35.43,197.59,35.43Z"/><path class="cls-1" d="M175.53,116.78c-8.56-10.31-8-28.57-8-28.57l0-35.17-18.17-7.36c0,.08.07,9.28,0,16.73-.28,42.23,5,49.16,8.43,54.63a74.57,74.57,0,0,0,24.54,24.21l9-9.37A94.75,94.75,0,0,1,175.53,116.78Z"/><polygon class="cls-1" points="167.6 53.04 213.38 26.15 196.82 20.04 149.43 45.67 149.43 45.68 167.6 53.05 167.6 53.04"/></g></g></g></svg>