<?xml version="1.0" encoding="utf-8"?>
<!-- Generator: Adobe Illustrator 24.3.0, SVG Export Plug-In . SVG Version: 6.00 Build 0)  -->
<svg version="1.1" xmlns="http://www.w3.org/2000/svg" xmlns:xlink="http://www.w3.org/1999/xlink" x="0px" y="0px"
	 viewBox="0 0 802.7 550.2" style="enable-background:new 0 0 802.7 550.2;" xml:space="preserve">
<style type="text/css">
	.st0{fill:#51728B;stroke:#D4D4DB;stroke-width:1.1357;stroke-miterlimit:10;}
	.st1{fill:#51728B;stroke:#D4D4DB;stroke-width:1.0353;stroke-miterlimit:10;}
	.st2{fill:#51728B;stroke:#D4D4DB;stroke-width:0.9645;stroke-miterlimit:10;}
	.st3{fill:#51728B;stroke:#D4D4DB;stroke-width:0.9326;stroke-miterlimit:10;}
	.st4{fill:#51728B;stroke:#D4D4DB;stroke-width:0.981;stroke-miterlimit:10;}
	.st5{fill:#51728B;stroke:#D4D4DB;stroke-width:1.0494;stroke-miterlimit:10;}
	.st6{fill:#51728B;stroke:#D4D4DB;stroke-width:0.9787;stroke-miterlimit:10;}
	.st7{fill:#51728B;stroke:#D4D4DB;stroke-width:0.8942;stroke-miterlimit:10;}
	.st8{fill:#2D374B;}
	.st9{fill:#575756;}
	.st10{fill:#96BEDC;}
	.st11{fill:#1472B9;}
	.st12{fill:#3C99D5;}
	.st13{fill:#5B81A3;}
	.st14{fill:#3751D1;}
	.st15{fill:#5B81A3;stroke:#D4D4DB;stroke-width:0.25;stroke-miterlimit:10;}
	.st16{fill:#1472B9;stroke:#D4D4DB;stroke-width:0.25;stroke-miterlimit:10;}
	.st17{fill:#3C99D5;stroke:#D4D4DB;stroke-width:0.25;stroke-miterlimit:10;}
	.st18{fill:#96BEDC;stroke:#D4D4DB;stroke-width:0.25;stroke-miterlimit:10;}
	.st19{fill:#575756;stroke:#D4D4DB;stroke-width:0.25;stroke-miterlimit:10;}
	.st20{fill:#2D374B;stroke:#D4D4DB;stroke-width:0.25;stroke-miterlimit:10;}
	.st21{fill:#3751D1;stroke:#D4D4DB;stroke-width:0.25;stroke-miterlimit:10;}
	.st22{fill:none;stroke:#D4D4DB;stroke-linecap:round;stroke-miterlimit:10;}
	.st23{fill:none;}
	.st24{fill:#FFFFFF;}
	.st25{font-family:'Poppins-Regular';}
	.st26{font-size:13px;}
</style>
<g id="Capa_1">
	
		<image style="display:none;overflow:visible;" width="630" height="546" xlink:href="E2520A6B.jpg"  transform="matrix(1.0094 0 0 1.0094 144.1317 7.5964)">
	</image>
	<g id="Capa_3">
		<rect x="95.7" y="453.7" class="st0" width="131.9" height="22.2"/>
		<rect x="-27.1" y="-13.3" class="st0" width="871.8" height="593.8"/>
	</g>
	<g id="Capa_7">
		<rect x="30.7" y="99.1" class="st0" width="192.9" height="24.3"/>
		<rect x="25.5" y="169" class="st1" width="160.3" height="24.3"/>
		<rect x="196.1" y="31.3" class="st2" width="139.1" height="24.3"/>
		<rect x="470.5" y="23.7" class="st3" width="130.1" height="24.3"/>
		<rect x="648.1" y="91.1" class="st4" width="143.9" height="24.3"/>
		<rect x="633.1" y="493.5" class="st5" width="164.7" height="24.3"/>
		<rect x="98.1" y="453.6" class="st6" width="143.3" height="24.3"/>
		<rect x="31.4" y="282.8" class="st7" width="119.6" height="23.9"/>
	</g>
	<path class="st8" d="M533.6,426.7c-2.8-3.9-8.1-4.9-12.2-2.4c-22.9,14.2-49.9,22.3-78.7,22.3c-42.7,0-81.2-17.9-108.5-46.5
		c-3.6-3.7-9.4-4.1-13.4-0.9l-47.4,39.1c-4.3,3.6-4.8,10-1,14.2c42.2,46.1,102.9,75,170.3,75c45.8,0,88.5-13.3,124.4-36.4
		c4.7-3,5.9-9.4,2.7-13.9L533.6,426.7z"/>
	<path class="st9" d="M213.3,322.7c4.7,41.8,20.5,80.2,44.5,112.2c3.1,4.1,9,4.9,13,1.6l48.5-40c3.7-3,4.4-8.4,1.6-12.3
		c-14.1-19.7-23.6-42.9-26.9-68c-0.6-4.8-4.8-8.2-9.6-7.9l-62.7,4.4C216.5,313,212.7,317.6,213.3,322.7z"/>
	<path class="st10" d="M295,239.5l-58.6-23.2c-4.7-1.9-10.1,0.5-11.8,5.3c-8.5,22.8-11.5,32.6-12,60c-0.1,3.6-0.1,8.1,0,18.8
		c0,5.2,4.5,9.4,9.7,9l62.6-4.4c4.7-0.3,8.4-4.2,8.4-8.9l0.1-5.6c0.9-13.9,2.6-26.3,6.9-39.8C301.7,246.1,299.4,241.3,295,239.5z"/>
	<g>
		<path class="st11" d="M334.2,193.4c14.7-15.4,32.6-27.7,52.7-35.8c4.5-1.8,6.8-6.7,5.3-11.3l-19.6-59.8c-1.6-4.9-7-7.5-11.9-5.7
			c-34.1,12.9-64.3,33.7-88.4,60.1c-3.5,3.8-3.1,9.8,0.9,13.1l48.6,40C325.5,197.2,330.9,196.9,334.2,193.4z"/>
		<path class="st12" d="M258.2,158c-10.2,13.5-18.9,28.1-25.9,43.6c-2.1,4.7,0.1,10.3,4.9,12.2l58.5,23.2c4.4,1.8,9.5-0.2,11.5-4.6
			c4-8.3,8.7-16.2,14.1-23.6c2.8-3.9,2.2-9.3-1.5-12.4l-48.6-40C267.3,153.1,261.3,153.8,258.2,158z"/>
	</g>
	<g>
		<path class="st10" d="M416,76.2l8.1,63.6c0.6,4.4,4.5,7.6,8.9,7.4c0.1,0,0.1,0,0.2,0c4.5-0.3,8-4,8-8.4V74.6c0-4.8-4-8.7-8.9-8.5
			c-2.9,0.1-5.7,0.3-8.6,0.5C418.9,67.1,415.4,71.4,416,76.2z"/>
		<path class="st13" d="M402.5,69.4c-7,1.2-14,2.8-20.8,4.7c-5,1.4-7.9,6.7-6.2,11.6l19.6,59.8c1.5,4.5,6.2,7.1,10.9,6
			c2.6-0.6,5.2-1.2,7.8-1.7c4.7-0.9,7.9-5.3,7.3-10.1l-8-62.4C412.4,72.1,407.6,68.5,402.5,69.4z"/>
		<path class="st14" d="M444.1,75v63.5c0,4.6,3.6,8.4,8.2,8.7c78.2,5,140.1,70,140.1,149.5c0,46.8-21.4,88.6-55,116
			c-3.6,2.9-4.3,8.1-1.6,11.9l36.9,51.7c2.9,4.1,8.6,4.9,12.6,1.8c53.7-42.3,88.1-107.8,88.1-181.4c0-123.9-97.6-225-220.1-230.5
			C448.3,66,444.1,69.9,444.1,75z"/>
	</g>
	<g id="Capa_4">
		<circle class="st15" cx="493.8" cy="35" r="4.2"/>
		<circle class="st15" cx="208.2" cy="42.7" r="4.2"/>
		<circle class="st16" cx="43.1" cy="111.5" r="4.2"/>
		<circle class="st17" cx="40.5" cy="180.4" r="4.2"/>
		<circle class="st18" cx="45.8" cy="293.7" r="4.2"/>
		<circle class="st19" cx="112.9" cy="464.9" r="4.2"/>
		<circle class="st20" cx="650.4" cy="504.6" r="4.2"/>
		<circle class="st21" cx="665.3" cy="102.9" r="4.2"/>
	</g>
	<g id="Capa_5">
		<line class="st22" x1="425.5" y1="71.7" x2="470.5" y2="36.9"/>
		<line class="st22" x1="335.7" y1="43.3" x2="395.9" y2="77.9"/>
		<line class="st22" x1="223.7" y1="111" x2="310.9" y2="120.4"/>
		<line class="st22" x1="186" y1="180" x2="255.6" y2="189.5"/>
		<line class="st22" x1="151.2" y1="293.7" x2="224.6" y2="274.9"/>
		<line class="st22" x1="195" y1="453.7" x2="264.2" y2="407.9"/>
		<line class="st22" x1="537.8" y1="495.1" x2="633.1" y2="505.1"/>
		<line class="st22" x1="592" y1="151.7" x2="648.1" y2="103.3"/>
	</g>
	<g id="Capa_6">
		<rect x="675.4" y="98.4" class="st23" width="132.2" height="12.4"/>
		<text transform="matrix(1 0 0 1 675.3571 108.0059)" class="st24 st25 st26">Public sale: 40%</text>
		<rect x="660.4" y="500.2" class="st23" width="125.8" height="12.4"/>
		<text transform="matrix(1 0 0 1 660.3743 509.784)" class="st24 st25 st26">Seed liquidity:  24%</text>
		<rect x="122.9" y="460.4" class="st23" width="111.5" height="12.4"/>
		<text transform="matrix(1 0 0 1 122.9391 470.0689)" class="st24 st25 st26">CEX Listing:  10%</text>
		<rect x="55.9" y="289.2" class="st23" width="111.5" height="12.4"/>
		<text transform="matrix(1 0 0 1 55.8501 298.7859)" class="st24 st25 st26">Marketing:  7%</text>
		<rect x="50.5" y="176" class="st23" width="129" height="12.4"/>
		<text transform="matrix(1 0 0 1 50.5202 185.5762)" class="st24 st25 st26">Developement:  5%</text>
		<rect x="55.6" y="106.3" class="st23" width="154.2" height="12.4"/>
		<text transform="matrix(1 0 0 1 55.6202 115.9591)" class="st24 st25 st26">Protocol incentives:  9%</text>
		<rect x="222.2" y="38.2" class="st23" width="111.5" height="12.4"/>
		<text transform="matrix(1 0 0 1 222.2091 47.7984)" class="st24 st25 st26">Ecosystem:  3%</text>
		<rect x="508.7" y="30.5" class="st23" width="111.5" height="12.4"/>
		<text transform="matrix(1 0 0 1 508.6998 40.1335)" class="st24 st25 st26">Airdrop:  2%</text>
	</g>
</g>
<g id="Capa_2">
</g>
</svg>
